<svg width="24" height="24" viewBox="0 0 24 24" fill="none" xmlns="http://www.w3.org/2000/svg">
<path d="M2.68936 7.20456C2.52619 6.82384 2.08528 6.64747 1.70456 6.81064C1.32384 6.97381 1.14747 7.41472 1.31064 7.79544L2.68936 7.20456ZM15.5872 13.8287L15.3125 13.1308L15.5872 13.8287ZM9.04145 14.2377C9.26736 13.8906 9.16904 13.426 8.82185 13.2001C8.47466 12.9742 8.01008 13.0725 7.78417 13.4197L9.04145 14.2377ZM6.37136 15.591C6.14545 15.9381 6.24377 16.4027 6.59096 16.6286C6.93815 16.8545 7.40273 16.7562 7.62864 16.409L6.37136 15.591ZM22.6894 7.79544C22.8525 7.41472 22.6762 6.97381 22.2954 6.81064C21.9147 6.64747 21.4738 6.82384 21.3106 7.20456L22.6894 7.79544ZM19 11.6288L18.4867 11.082V11.082L19 11.6288ZM19.9697 13.6592C20.2626 13.9521 20.7374 13.9521 21.0303 13.6592C21.3232 13.3663 21.3232 12.8914 21.0303 12.5985L19.9697 13.6592ZM11.25 17C11.25 17.4142 11.5858 17.75 12 17.75C12.4142 17.75 12.75 17.4142 12.75 17H11.25ZM16.3714 16.409C16.5973 16.7562 17.0619 16.8545 17.409 16.6286C17.7562 16.4027 17.8545 15.9381 17.6286 15.591L16.3714 16.409ZM5.53033 12.1592C5.82322 11.8663 5.82322 11.3914 5.53033 11.0985C5.23744 10.8056 4.76256 10.8056 4.46967 11.0985L5.53033 12.1592ZM2.96967 12.5985C2.67678 12.8914 2.67678 13.3663 2.96967 13.6592C3.26256 13.9521 3.73744 13.9521 4.03033 13.6592L2.96967 12.5985ZM12 13.75C8.77611 13.75 6.46133 12.1446 4.9246 10.4897C4.15645 9.66243 3.59325 8.83284 3.22259 8.21014C3.03769 7.8995 2.90187 7.64232 2.8134 7.46537C2.76919 7.37696 2.73689 7.30875 2.71627 7.26411C2.70597 7.2418 2.69859 7.2254 2.69411 7.21533C2.69187 7.2103 2.69036 7.20684 2.68957 7.20503C2.68917 7.20413 2.68896 7.20363 2.68892 7.20355C2.68891 7.20351 2.68893 7.20357 2.68901 7.20374C2.68904 7.20382 2.68913 7.20403 2.68915 7.20407C2.68925 7.2043 2.68936 7.20456 2 7.5C1.31064 7.79544 1.31077 7.79575 1.31092 7.79609C1.31098 7.79624 1.31114 7.7966 1.31127 7.7969C1.31152 7.79749 1.31183 7.7982 1.31218 7.799C1.31287 7.80062 1.31376 7.80266 1.31483 7.80512C1.31698 7.81003 1.31988 7.81662 1.32353 7.82483C1.33083 7.84125 1.34115 7.86415 1.35453 7.89311C1.38127 7.95102 1.42026 8.0332 1.47176 8.13619C1.57469 8.34206 1.72794 8.63175 1.93366 8.97736C2.34425 9.66716 2.96855 10.5876 3.8254 11.5103C5.53867 13.3554 8.22389 15.25 12 15.25V13.75ZM15.3125 13.1308C14.3421 13.5128 13.2417 13.75 12 13.75V15.25C13.4382 15.25 14.7246 14.9742 15.8619 14.5266L15.3125 13.1308ZM7.78417 13.4197L6.37136 15.591L7.62864 16.409L9.04145 14.2377L7.78417 13.4197ZM22 7.5C21.3106 7.20456 21.3107 7.20441 21.3108 7.20427C21.3108 7.20423 21.3108 7.2041 21.3109 7.20402C21.3109 7.20388 21.311 7.20376 21.311 7.20368C21.3111 7.20352 21.3111 7.20349 21.3111 7.2036C21.311 7.2038 21.3107 7.20452 21.3101 7.20576C21.309 7.20823 21.307 7.21275 21.3041 7.21924C21.2983 7.23223 21.2889 7.25309 21.2758 7.28125C21.2495 7.33757 21.2086 7.42295 21.1526 7.53267C21.0406 7.75227 20.869 8.06831 20.6354 8.4432C20.1669 9.19516 19.4563 10.172 18.4867 11.082L19.5133 12.1757C20.6023 11.1535 21.3917 10.0659 21.9085 9.23646C22.1676 8.82068 22.36 8.4668 22.4889 8.21415C22.5533 8.08775 22.602 7.98643 22.6353 7.91507C22.6519 7.87939 22.6647 7.85118 22.6737 7.83104C22.6782 7.82097 22.6818 7.81292 22.6844 7.80696C22.6857 7.80398 22.6867 7.80153 22.6876 7.7996C22.688 7.79864 22.6883 7.79781 22.6886 7.79712C22.6888 7.79677 22.6889 7.79646 22.689 7.79618C22.6891 7.79604 22.6892 7.79585 22.6892 7.79578C22.6893 7.79561 22.6894 7.79544 22 7.5ZM18.4867 11.082C17.6277 11.8882 16.5739 12.6343 15.3125 13.1308L15.8619 14.5266C17.3355 13.9466 18.5466 13.083 19.5133 12.1757L18.4867 11.082ZM18.4697 12.1592L19.9697 13.6592L21.0303 12.5985L19.5303 11.0985L18.4697 12.1592ZM11.25 14.5V17H12.75V14.5H11.25ZM14.9586 14.2377L16.3714 16.409L17.6286 15.591L16.2158 13.4197L14.9586 14.2377ZM4.46967 11.0985L2.96967 12.5985L4.03033 13.6592L5.53033 12.1592L4.46967 11.0985Z" fill="#BFBFBF"/>
</svg>
