<svg width="48" height="48" viewBox="0 0 48 48" fill="none" xmlns="http://www.w3.org/2000/svg">
<mask id="mask0_3009_998" style="mask-type:alpha" maskUnits="userSpaceOnUse" x="0" y="0" width="48" height="48">
<circle cx="24" cy="24" r="24" fill="#171717"/>
</mask>
<g mask="url(#mask0_3009_998)">
<path d="M54.7494 5.42725L40.6916 27.9302V42.7748H34.2397V27.9302L20.1295 5.42725H27.6829L37.5968 21.9504L47.4058 5.42725H54.7494Z" fill="white"/>
<path d="M22.3622 16.4432H16.1202C15.7355 12.072 13.0253 9.88635 7.98971 9.88635C5.75165 9.88635 4.00317 10.3584 2.74426 11.3026C1.48535 12.2118 0.8559 13.4707 0.8559 15.0793C0.8559 16.583 1.31051 17.6146 2.21972 18.1742C3.1639 18.7337 5.22711 19.4156 8.40935 20.2199C9.24862 20.4647 9.89556 20.6395 10.3502 20.7444C14.5116 21.7935 17.3441 22.7377 18.8478 23.577C22.1699 25.3604 23.831 28.1405 23.831 31.9172C23.831 33.5608 23.5512 35.047 22.9917 36.3759C22.4322 37.7047 21.6803 38.8237 20.7362 39.733C19.792 40.6072 18.6729 41.3416 17.3791 41.936C16.0852 42.5305 14.7389 42.9502 13.3401 43.195C11.9413 43.4747 10.49 43.6146 8.98634 43.6146C4.30041 43.6146 0.506204 42.4956 -2.39628 40.2575C-5.29876 38.0194 -6.75 34.7323 -6.75 30.3961H-0.298099C-0.298099 33.1237 0.593627 35.1519 2.37708 36.4808C4.16053 37.7747 6.48601 38.4216 9.35353 38.4216C11.8713 38.4216 13.8296 37.9145 15.2284 36.9004C16.6622 35.8513 17.3791 34.4001 17.3791 32.5467C17.3791 31.3577 16.9944 30.3961 16.2251 29.6617C15.4907 28.8924 14.6864 28.3503 13.8122 28.0356C12.9379 27.7209 11.4167 27.2838 9.24862 26.7242C9.00383 26.6543 8.8115 26.6018 8.67162 26.5669C4.02065 25.3779 0.960809 24.3988 -0.507916 23.6294C-3.55028 22.0558 -5.17637 19.6254 -5.38618 16.3383C-5.38618 16.0935 -5.38618 15.8487 -5.38618 15.6039C-5.38618 12.2818 -4.14476 9.64156 -1.66192 7.68326C0.8559 5.68999 4.21299 4.69336 8.40935 4.69336C12.4658 4.69336 15.7705 5.65503 18.3232 7.57836C20.876 9.50169 22.2224 12.4566 22.3622 16.4432Z" fill="white"/>
</g>
</svg>
